<?xml version="1.0" encoding="UTF-8" standalone="no"?>
<!-- Created with Inkscape (http://www.inkscape.org/) -->

<svg
   width="91.832779mm"
   height="63.325771mm"
   viewBox="0 0 91.832779 63.325771"
   version="1.1"
   id="svg731"
   inkscape:export-filename="logo.svg"
   inkscape:export-xdpi="96"
   inkscape:export-ydpi="96"
   xmlns:inkscape="http://www.inkscape.org/namespaces/inkscape"
   xmlns:sodipodi="http://sodipodi.sourceforge.net/DTD/sodipodi-0.dtd"
   xmlns="http://www.w3.org/2000/svg"
   xmlns:svg="http://www.w3.org/2000/svg">
  <sodipodi:namedview
     id="namedview733"
     pagecolor="#ffffff"
     bordercolor="#666666"
     borderopacity="1.0"
     inkscape:showpageshadow="2"
     inkscape:pageopacity="0.0"
     inkscape:pagecheckerboard="0"
     inkscape:deskcolor="#d1d1d1"
     inkscape:document-units="mm"
     showgrid="false" />
  <defs
     id="defs728" />
  <g
     inkscape:label="Capa 1"
     inkscape:groupmode="layer"
     id="layer1"
     transform="translate(-62.943838,-63.685457)">
    <path
       fill="#a80038"
       d="m 111.59342,77.869883 h 3.69094 a 0.25929166,0.25929166 0 0 0 0.21431,-0.11377 q 0.84931,-1.24354 2.3495,-1.44198 a 0.24341666,0.238125 10.4 0 0 0.17992,-0.1217 l 3.26496,-5.95313 a 0.29104166,0.29633333 48.1 0 0 0.0159,-0.24871 c -1.19327,-3.02418 1.95792,-5.97958 4.57994,-3.99256 2.36273,1.79388 1.4261,5.19642 -1.43933,5.68325 a 0.269875,0.27252083 9.6 0 0 -0.1958,0.14023 l -3.1697,6.02456 a 0.37835416,0.381 51 0 0 -0.0291,0.26988 q 0.78846,3.0136 -1.60337,4.11956 c -1.40229,0.65087 -2.8284,0.26194 -3.79148,-0.89429 a 0.26458333,0.26722916 70.7 0 0 -0.20638,-0.0979 H 111.567 a 0.15345833,0.1508125 89.5 0 0 -0.15081,0.15611 q 0.0609,4.42383 0.0159,8.83972 c -0.0106,1.00542 3.28348,0.66146 3.97404,0.65882 a 0.2460625,0.24870833 17.4 0 0 0.20373,-0.10848 c 2.85485,-4.21746 8.50371,1.16946 4.46881,4.21481 a 0.25664583,0.25664583 0 0 0 -0.10054,0.20373 v 7.037917 a 0.56091666,0.56091666 0 0 1 -0.56092,0.56091 l -2.20662,0.003 a 0.60060416,0.60060416 0 0 1 -0.60061,-0.60061 l -0.008,-6.979697 a 0.3175,0.31220833 22.8 0 0 -0.0926,-0.22225 l -0.6985,-0.70115 a 0.34660416,0.34395833 67.1 0 0 -0.24077,-0.0979 h -2.65377 a 0.25135416,0.254 14.1 0 0 -0.22225,0.13494 c -1.34408,2.5744 -4.62492,2.62202 -5.842,-0.0185 a 0.1984375,0.20108333 78 0 0 -0.18256,-0.11642 h -2.9898 a 0.33866666,0.34395833 22.9 0 0 -0.24077,0.10055 l -0.6932,0.69585 a 0.32014583,0.31485416 67.8 0 0 -0.0926,0.2249 l -0.0159,6.992927 a 0.58737499,0.58737499 0 0 1 -0.59002,0.58738 l -2.211917,-0.005 a 0.56091666,0.56091666 0 0 1 -0.56092,-0.55827 v -7.029977 a 0.29104166,0.28310416 19.2 0 0 -0.11377,-0.22754 c -4.02696,-3.05859 1.674807,-8.40846 4.484687,-4.20159 a 0.25135416,0.24077083 72.6 0 0 0.20373,0.11113 q 1.78858,0.003 3.56129,0.005 c 0.39687,0 0.71702,-0.42863 0.71967,-0.84931 q 0.0265,-4.33388 -0.0106,-8.6704 a 0.142875,0.14022916 0 0 0 -0.14287,-0.14023 h -3.60363 a 0.29633333,0.301625 20.9 0 0 -0.22489,0.10319 q -1.09538,1.27264 -2.79665,1.22502 a 0.254,0.25135416 17.9 0 0 -0.21167,0.10583 l -4.431767,6.0034 a 0.30691666,0.31220833 58.1 0 0 -0.0582,0.24077 c 0.43391,2.42358 -1.54253,4.87627 -4.06136,3.89202 -3.42106,-1.3335 -2.41035,-6.13569 1.25413,-6.09335 a 0.254,0.25929166 19 0 0 0.21166,-0.10584 l 4.47411,-6.19389 a 0.32014583,0.3175 57.4 0 0 0.0529,-0.24607 c -0.74083,-3.51366 3.709457,-5.27314 5.728227,-2.4077 a 0.24870833,0.24870833 0 0 0 0.20109,0.10318 h 3.49514 a 0.13229166,0.13229166 0 0 0 0.13229,-0.13229 v -0.62971 a 0.21166666,0.2143125 9.7 0 0 -0.14023,-0.20108 c -3.94758,-1.36525 -5.96635,-5.21758 -4.41854,-9.09373 1.11654,-2.78871 4.40002,-4.61962 7.40834,-4.01108 7.01939,1.42346 7.35806,10.92729 0.54768,13.10746 a 0.19579166,0.19579166 0 0 0 -0.13758,0.20637 l 0.0635,0.635 a 0.1349375,0.13229166 86.8 0 0 0.13229,0.11906 z m 3.68829,-7.46125 a 5.5112708,5.5112708 0 0 0 -5.51127,-5.51127 5.5112708,5.5112708 0 0 0 -5.51127,5.51127 5.5112708,5.5112708 0 0 0 5.51127,5.51127 5.5112708,5.5112708 0 0 0 5.51127,-5.51127 z m 10.75532,-1.86002 a 1.9288125,1.9288125 0 0 0 -1.92882,-1.92881 1.9288125,1.9288125 0 0 0 -1.92881,1.92881 1.9288125,1.9288125 0 0 0 1.92881,1.92882 1.9288125,1.9288125 0 0 0 1.92882,-1.92882 z m -2.97837,3.05967 a 0.0714375,0.0714375 0 0 0 -0.0292,-0.0967 l -0.7928,-0.42508 a 0.0714375,0.0714375 0 0 0 -0.0967,0.0292 l -2.85065,5.31646 a 0.0714375,0.0714375 0 0 0 0.0292,0.0967 l 0.7928,0.42508 a 0.0714375,0.0714375 0 0 0 0.0967,-0.0292 z m -12.8543,5.60808 a 0.0714375,0.0714375 0 0 0 -0.0714,-0.0714 h -0.73025 a 0.0714375,0.0714375 0 0 0 -0.0714,0.0714 v 12.74763 a 0.0714375,0.0714375 0 0 0 0.0714,0.0714 h 0.73025 a 0.0714375,0.0714375 0 0 0 0.0714,-0.0714 z m -6.64633,2.21192 a 1.9288125,1.9288125 0 0 0 -1.92882,-1.92881 1.9288125,1.9288125 0 0 0 -1.928807,1.92881 1.9288125,1.9288125 0 0 0 1.928807,1.92881 1.9288125,1.9288125 0 0 0 1.92882,-1.92881 z m 16.52058,0.005 a 1.9288125,1.9288125 0 0 0 -1.92881,-1.92881 1.9288125,1.9288125 0 0 0 -1.92882,1.92881 1.9288125,1.9288125 0 0 0 1.92882,1.92881 1.9288125,1.9288125 0 0 0 1.92881,-1.92881 z m -11.94128,-0.23841 a 0.13758333,0.13758333 0 0 0 -0.13782,-0.13735 l -3.10092,0.005 a 0.13758333,0.13758333 0 0 0 -0.13734,0.13782 l 10e-4,0.71967 a 0.13758333,0.13758333 0 0 0 0.13782,0.13734 l 3.10092,-0.005 a 0.13758333,0.13758333 0 0 0 0.13734,-0.13782 z m 6.89758,-0.0637 a 0.0714375,0.0714375 0 0 0 -0.0716,-0.0713 l -3.46604,0.006 a 0.0714375,0.0714375 0 0 0 -0.0713,0.0716 l 0.002,0.84667 a 0.0714375,0.0714375 0 0 0 0.0716,0.0713 l 3.46604,-0.006 a 0.0714375,0.0714375 0 0 0 0.0713,-0.0716 z m -15.03249,3.04718 a 0.0714375,0.0714375 0 0 0 -0.0156,-0.0998 l -0.71403,-0.52067 a 0.0714375,0.0714375 0 0 0 -0.0998,0.0156 l -3.98145,5.45997 a 0.0714375,0.0714375 0 0 0 0.0156,0.0998 l 0.71404,0.52067 a 0.0714375,0.0714375 0 0 0 0.0998,-0.0156 z m -4.461267,7.67424 a 1.9261666,1.9261666 0 0 0 -1.92617,-1.92616 1.9261666,1.9261666 0 0 0 -1.92616,1.92616 1.9261666,1.9261666 0 0 0 1.92616,1.92617 1.9261666,1.9261666 0 0 0 1.92617,-1.92617 z m 7.318377,2.54529 a 1.9261666,1.9261666 0 0 0 -1.92617,-1.92616 1.9261666,1.9261666 0 0 0 -1.926167,1.92616 1.9261666,1.9261666 0 0 0 1.926167,1.92617 1.9261666,1.9261666 0 0 0 1.92617,-1.92617 z m 17.38312,0 a 1.9288125,1.9288125 0 0 0 -1.92881,-1.92881 1.9288125,1.9288125 0 0 0 -1.92881,1.92881 1.9288125,1.9288125 0 0 0 1.92881,1.92882 1.9288125,1.9288125 0 0 0 1.92881,-1.92882 z m -8.54339,0.77259 a 1.9261666,1.9261666 0 0 0 -1.92617,-1.92617 1.9261666,1.9261666 0 0 0 -1.92617,1.92617 1.9261666,1.9261666 0 0 0 1.92617,1.92616 1.9261666,1.9261666 0 0 0 1.92617,-1.92616 z m -4.992,-1.00576 a 0.0714375,0.0714375 0 0 0 -0.0713,-0.0716 l -2.50295,-0.004 a 0.0714375,0.0714375 0 0 0 -0.0716,0.0713 l -10e-4,0.77788 a 0.0714375,0.0714375 0 0 0 0.0713,0.0715 l 2.50296,0.004 a 0.0714375,0.0714375 0 0 0 0.0715,-0.0713 z m 6.15881,-0.0737 a 0.09789583,0.09789583 0 0 0 -0.0952,0.11906 l 0.15875,0.73025 a 0.09789583,0.09789583 0 0 0 0.0952,0.0767 h 2.09021 a 0.09789583,0.09789583 0 0 0 0.0979,-0.10848 l -0.0794,-0.73025 a 0.09789583,0.09789583 0 0 0 -0.0979,-0.0873 z m -11.40619,3.57187 a 0.1349375,0.1349375 0 0 0 -0.13494,-0.13493 h -0.72496 a 0.1349375,0.1349375 0 0 0 -0.13493,0.13493 v 5.815537 a 0.1349375,0.1349375 0 0 0 0.13493,0.13494 h 0.72496 a 0.1349375,0.1349375 0 0 0 0.13494,-0.13494 z m 17.33021,-0.0609 a 0.0714375,0.0714375 0 0 0 -0.0714,-0.0714 h -0.85196 a 0.0714375,0.0714375 0 0 0 -0.0714,0.0714 v 5.942537 a 0.0714375,0.0714375 0 0 0 0.0714,0.0714 h 0.85196 a 0.0714375,0.0714375 0 0 0 0.0714,-0.0714 z"
       id="path451"
       style="stroke-width:0.264583" />
    <g
       id="g707"
       transform="matrix(0.26458333,0,0,0.26458333,47.73899,48.368946)">
      <path
         fill="#111111"
         d="m 391.52714,250.81703 h 8.06 a 0.63,0.63 0 0 1 0.63,0.63 v 10.12 a 0.75,0.75 0 0 1 -0.75,0.75 h -8 a 0.5,0.5 0 0 0 -0.5,0.5 v 33 a 0.5,0.5 0 0 1 -0.5,0.5 h -13 a 0.5,0.5 0 0 1 -0.5,-0.5 v -33 a 0.5,0.5 0 0 0 -0.5,-0.5 h -5.25 a 0.5,0.5 0 0 1 -0.5,-0.5 v -10.5 a 0.5,0.5 0 0 1 0.5,-0.5 h 5.22 a 0.6,0.61 88.2 0 0 0.61,-0.64 c -1.07,-16.38 15.22,-19.48 27,-13.93 a 0.87,0.88 25.1 0 1 0.42,1.17 l -3.86,8.17 a 0.66,0.66 0 0 1 -0.81,0.34 c -3.66,-1.27 -10.1,-2.06 -8.86,4.4 a 0.6,0.6 0 0 0 0.59,0.49 z"
         id="path487" />
      <path
         fill="#111111"
         d="m 71.197139,292.86703 0.02,2.95 a 0.49,0.5 89.4 0 1 -0.5,0.5 h -12.75 a 0.5,0.5 0 0 1 -0.5,-0.5 v -60.75 a 0.5,0.5 0 0 1 0.5,-0.5 h 12.63 a 0.62,0.63 0 0 1 0.62,0.63 v 19.16 a 0.27,0.27 0 0 0 0.44,0.2 q 7.27,-6.15 16.54,-3.66 c 13.900001,3.74 19.800001,16.71 16.080001,30.06 -3.88,13.92 -20.900001,21.72 -32.660001,11.72 q -0.42,-0.36 -0.42,0.19 z m 9.9301,-7.7711 a 10.72,11.45 0.8 0 0 10.8789,-11.2992 10.72,11.45 0.8 0 0 -10.5591,-11.5986 10.72,11.45 0.8 0 0 -10.8789,11.2992 10.72,11.45 0.8 0 0 10.5591,11.5986 z"
         id="path489" />
      <rect
         fill="#111111"
         x="209.79736"
         y="234.94579"
         transform="rotate(-0.1)"
         width="14"
         height="11.5"
         rx="0.60000002"
         id="rect491" />
      <path
         fill="#111111"
         d="m 350.73714,254.36703 -0.03,-19.29 a 0.5,0.51 0 0 1 0.5,-0.51 h 12.64 a 0.62,0.63 0 0 1 0.62,0.63 v 60.71 a 0.4,0.4 0 0 1 -0.4,0.4 l -12.75,0.01 a 0.62,0.63 0.9 0 1 -0.63,-0.66 l 0.14,-2.69 q 0.03,-0.7 -0.5,-0.25 -8.14,6.93 -18.69,3.22 c -21.14,-7.44 -19.79,-39.93 2.33,-45.17 6.25,-1.47 11.54,-0.25 16.39,3.78 a 0.23,0.23 0 0 0 0.38,-0.18 z m -10.2597,30.7283 a 10.71,11.44 1 0 0 10.90809,-11.2514 10.71,11.44 1 0 0 -10.50869,-11.6252 10.71,11.44 1 0 0 -10.9081,11.2514 10.71,11.44 1 0 0 10.5087,11.6252 z"
         id="path493" />
      <path
         fill="#111111"
         d="m 301.21714,250.81703 h 8.75 a 0.5,0.49 0.6 0 1 0.5,0.5 l -0.01,10.6 a 0.4,0.4 0 0 1 -0.4,0.4 h -8.8 a 0.52,0.52 0 0 0 -0.52,0.52 q -0.04,9.38 -0.02,18.73 c 0.01,4.47 6.54,3.29 9.05,2.5 a 0.54,0.54 0 0 1 0.7,0.52 v 10.2 a 0.96,0.97 82.6 0 1 -0.72,0.93 c -27.55,7.26 -22.73,-16.59 -22.8,-32.89 a 0.51,0.51 0 0 0 -0.51,-0.51 h -5.34 a 0.63,0.63 0 0 1 -0.63,-0.63 v -10.24 a 0.63,0.63 0 0 1 0.63,-0.63 h 5.37 a 0.5,0.5 0 0 0 0.5,-0.5 v -9.5 a 0.5,0.5 0 0 1 0.5,-0.5 h 12.75 a 0.5,0.5 0 0 1 0.5,0.5 v 9.5 a 0.5,0.5 0 0 0 0.5,0.5 z"
         id="path495" />
      <path
         fill="#111111"
         d="m 145.86713,254.28703 -0.19,-2.8 a 0.62,0.63 87.9 0 1 0.63,-0.67 h 12.66 a 0.5,0.5 0 0 1 0.5,0.5 v 44.59 a 0.4,0.4 0 0 1 -0.4,0.4 l -12.73,0.01 a 0.61,0.62 0 0 1 -0.62,-0.63 l 0.01,-2.82 q 0.01,-0.72 -0.51,-0.22 c -8.56,8.36 -22.53999,4.08 -28.64,-3.9 -10.15999,-13.28 -4.42999,-34.28 12.73,-38.11 q 8.89,-1.98 16.23,3.82 0.36,0.29 0.33,-0.17 z m -10.3498,30.8186 a 10.72,11.45 0.9 0 0 10.8985,-11.2802 10.72,11.45 0.9 0 0 -10.5389,-11.617 10.72,11.45 0.9 0 0 -10.89849,11.2802 10.72,11.45 0.9 0 0 10.53889,11.617 z"
         id="path497" />
      <path
         fill="#111111"
         d="m 188.47713,281.13703 c -4.87,-2.75 -10.52,-3.71 -15.06,-7.27 -4.92,-3.86 -7.15,-9.73 -4.3,-15.49 3.52,-7.11 12.74,-9.39 20.06,-7.6 5.92,1.45 10.04,5.27 12.26,10.86 a 0.45,0.45 0 0 1 -0.3,0.6 l -10.44,2.78 a 0.68,0.69 66.5 0 1 -0.77,-0.3 c -1.92,-3.08 -4.9,-5.39 -8.12,-2.24 a 1.36,1.32 70.8 0 0 -0.4,0.86 c -0.52,7.18 25.1,4.67 21.45,21.97 -1.95,9.26 -12.31,12.69 -20.89,11.67 q -11.58,-1.37 -15.6,-11.9 a 0.56,0.56 0 0 1 0.36,-0.74 l 9.72,-3.01 a 0.64,0.64 0 0 1 0.76,0.33 q 2.92,6 9.27,4.51 3.63,-0.85 2.6,-4.29 a 1.28,1.27 6.2 0 0 -0.6,-0.74 z"
         id="path499" />
      <path
         fill="#111111"
         d="m 235.54713,260.64703 c 8.33,-12.68 30.69001,-15 38.99001,-0.25 a 0.57,0.57 0 0 1 -0.25,0.79 l -9.17,4.47 a 0.84,0.83 52.1 0 1 -0.91,-0.12 c -10.27001,-8.78 -23.63,1.73 -17.89,13.5 3.49,7.15 12.11,7.41 17.92,2.72 a 0.79,0.79 0 0 1 0.84,-0.09 l 9.4,4.5 a 0.5,0.5 0 0 1 0.21,0.72 c -7.32,11.75 -22.54,12.64 -33.26,5.69 -10.49,-6.81 -12.52,-21.79 -5.88001,-31.93 z"
         id="path501" />
      <rect
         fill="#111111"
         x="210.21715"
         y="250.81705"
         width="14"
         height="45.5"
         rx="0.51999998"
         id="rect503" />
    </g>
  </g>
</svg>
